<svg width="1249" height="704" viewBox="0 0 1249 704" fill="none" xmlns="http://www.w3.org/2000/svg">
<path d="M3.5009 141.008C2.5009 148.008 6.5009 163.008 30.5009 167.008C60.5009 172.008 50 183.508 45 192.008C40 200.508 16 227.008 59 234.508C102 242.008 125.5 244.508 146.5 239.508C167.5 234.508 185.5 217.008 191.5 213.508C197.5 210.008 201 207.008 209.5 208.008C216.3 208.808 225 212.008 228.5 213.508C234 210.175 247 202.908 255 200.508C265 197.508 277 193.008 283.5 184.508C290 176.008 285.5 159.508 278 148.008C272 138.808 279.167 130.841 283.5 128.008C288.833 130.675 302.5 134.508 310.5 118.508C345.5 120.674 421.5 123.008 447.5 111.008C480 96.0081 480.5 30.5081 522.5 26.5081C564.5 22.5081 596.5 32.0076 620 25.0076C643.5 18.0076 674 -2.5001 713.5 4.4999C753 11.4999 764.137 49.8962 766.5 62.4999C769.5 78.4999 810.79 89.0644 864 98.0078C917.5 107 936.5 112 936.5 119.508C936.5 129 903.866 141.081 887 144C861 148.5 858 153 805 140.5C800.07 139.337 763 136 746 142.5C736.826 144.254 735.423 139.371 726.5 142C719.4 144.663 706.5 150 695.5 158.5C681 161 671 171.5 672 177.5C673 183.5 685.5 190 703.5 197C714.85 200.672 727.886 203.316 736.5 207.008C757.5 216.008 812.062 243.916 831.5 270.508C848.673 294 840.827 303.841 839.5 318C839.312 320 865 348.5 881.5 355.508C897.508 362.307 1000.5 368.346 1045 361.5C1053.65 360.169 1064.5 359 1079.5 357.5C1089 353.5 1136 359 1127.5 381.508C1132.5 378.675 1145.8 376.9 1161 388.5C1180 403 1168 397.5 1189.5 399.008C1201.5 399.849 1243.5 401 1245.5 408.5C1247 414.125 1215.5 429 1205 437.008C1197.15 442.998 1155.5 457 1120 463.5C1094 485 1089.7 479.246 1084 486.5C1073 500.5 1056.5 516 1031 513.008C994.222 508.692 970.984 511 966.5 519.008C959.5 531.508 959 533 949.5 537C942.696 539.865 939 563.008 943.5 575.508C948 588.008 944 609.508 966.5 637.508C989 665.508 1043.5 697.008 1042.5 703.008" stroke="#EF1B1B" stroke-width="6" stroke-dasharray="20 20"/>
</svg>
